<svg xmlns:xlink="http://www.w3.org/1999/xlink" width="84.061" xmlns="http://www.w3.org/2000/svg" height="80.016" id="screenshot-8ba3758d-ec17-8020-8001-8f49647f2bd6" viewBox="0 0 84.061 80.016" style="-webkit-print-color-adjust: exact;" fill="none" version="1.1"><g id="shape-8ba3758d-ec17-8020-8001-8f49647f2bd6" rx="0" ry="0"><g id="shape-8ba3758d-ec17-8020-8001-8f4755621728"><g id="fills-8ba3758d-ec17-8020-8001-8f4755621728"><path rx="0" ry="0" d="M56.247,67L42.247,80L11.247,80C11.247,80,8.323,80.449,4.492,76.618C0.99,73.116,0.247,69,0.247,69L0.247,13C0.247,13,-1.039,8.567,2.259,4.669C6.294,-0.1,11.247,0,11.247,0L37.881,0L49.824,13L14.247,13L14.247,67L56.247,67Z" style="fill: rgb(122, 45, 191); fill-opacity: 1;"/></g></g><g id="shape-8ba3758d-ec17-8020-8001-8f47b6de6b7e"><g id="fills-8ba3758d-ec17-8020-8001-8f47b6de6b7e"><path rx="0" ry="0" d="M36.051,0C48.051,0,49.316,-0.038,53.051,2C56.649,3.962,59.051,6,59.051,6C59.051,6,83.621,29.991,84.051,31C84.697,32.514,53.051,63,53.051,63L35,63L67.051,31L36.051,0Z" style="fill: rgb(87, 206, 225); fill-opacity: 1;"/></g></g><g id="shape-8ba3758d-ec17-8020-8001-8f48888e2940"><g id="fills-8ba3758d-ec17-8020-8001-8f48888e2940"><path rx="0" ry="0" d="M67.099,30.904L72.226,35.837C75.596,38.986,75.518,40.597,73.215,43.273L52.617,63.378L34.677,63.378L67.099,30.904Z" style="fill: rgb(254, 215, 0); fill-opacity: 1;"/></g></g></g></svg>